# xmcd
#
# Track frame offsets:
#	150
#	16839
#	35114
#	52009
#	69159
#	88234
#	105352
#	132137
#	151458
#	195590
#	221046
#	251954
#	278896
#
# Disc length: 4530 seconds
#
# Revision: 0
# Processed by: cddbd v1.5.2PL0 Copyright (c) Steve Scherf et al.
# Submitted via: dBpowerAMP V4.0
#
DISCID=ba11b00d
DTITLE=Bille Deraime - Brailleur de fond
DYEAR=2010
DGENRE=blues
TTITLE0=Encore bouger
TTITLE1=Des champs de redemption
TTITLE2=Maniaco-dépressif
TTITLE3=Tout l'monde a gagné
TTITLE4=Quand l'avion
TTITLE5=S'coue-toi
TTITLE6=Je m'sentais mal
TTITLE7=Assis sur le bord de la route
TTITLE8=Entre deux eaux
TTITLE9=Chaque matin
TTITLE10=Un dernier Blues
TTITLE11=Jesus met the woman at the well
TTITLE12=DATA
EXTD=
EXTT0=
EXTT1=
EXTT2=
EXTT3=
EXTT4=
EXTT5=
EXTT6=
EXTT7=
EXTT8=
EXTT9=
EXTT10=
EXTT11=
EXTT12=
PLAYORDER=
